<svg xmlns="http://www.w3.org/2000/svg" viewBox="0 0 472.85 133.2"><defs><style>.cls-1{fill:#ef4823;}</style></defs><g id="Layer_2" data-name="Layer 2"><g id="Layer_1-2" data-name="Layer 1"><path class="cls-1" d="M0,1.85H29L42,94.53h.37l13-92.68H84.36v129.5H65.12v-98h-.37L50,131.35h-17l-14.8-98h-.37v98.05H0Z"/><path class="cls-1" d="M118.21,76.22,93.61,1.85h21.64l13.88,47.54h.37L143.37,1.85h19.8L138.56,76.22v55.13H118.21Z"/><path class="cls-1" d="M202,1.85h30.71c21.08,0,30.15,9.8,30.15,29.78v5.18c0,13.32-4.07,21.65-13.13,25.35v.37c10.91,3.7,15.16,13.32,15.16,27v11.1c0,20-10.54,30.71-30.89,30.71H202Zm28.3,52.72c7.59,0,12.21-3.33,12.21-13.69V33.67c0-9.25-3.15-13.32-10.36-13.32h-9.8V54.57Zm3.7,58.28c6.85,0,10.55-3.15,10.55-12.77V88.8c0-12-3.89-15.73-13.14-15.73h-9.06v39.78Z"/><path class="cls-1" d="M276.75,1.85H297.1v111h33.49v18.5H276.75Z"/><path class="cls-1" d="M338.17,100.64V32.56C338.17,11.84,349.09,0,369.07,0S400,11.84,400,32.56v68.08c0,20.72-10.91,32.56-30.89,32.56S338.17,121.36,338.17,100.64Zm41.44,1.29V31.26c0-9.25-4.07-12.76-10.54-12.76S358.52,22,358.52,31.26v70.67c0,9.25,4.07,12.77,10.55,12.77S379.61,111.18,379.61,101.93Z"/><path class="cls-1" d="M412.17,100.64V32.56C412.17,11.84,422.53,0,442.51,0s30.34,11.84,30.34,32.56v11.1H453.61V31.26c0-9.25-4.07-12.76-10.54-12.76S432.52,22,432.52,31.26v70.86c0,9.25,4.07,12.58,10.55,12.58s10.54-3.33,10.54-12.58V76.77H443.44V58.27h29.41v42.37c0,20.72-10.36,32.56-30.34,32.56S412.17,121.36,412.17,100.64Z"/></g></g></svg>